<svg width="237px" height="234px" viewBox="0 0 237 234" version="1.1" xmlns="http://www.w3.org/2000/svg" xmlns:xlink="http://www.w3.org/1999/xlink">
    <title>Humble Bundle</title>
    <g id="h-white" stroke="none" stroke-width="1" fill="none" fill-rule="evenodd">
        <g id="Page-1" fill-rule="nonzero" fill="#FFFFFF">
            <g>
                <path d="M176.584886,189.366887 C143.186637,189.366887 194.603816,0.0437199519 194.603816,0.0437199519 L160.186749,1.66046988e-14 C160.186749,1.66046988e-14 146.097803,44.5593545 136.802605,94.0737039 L107.139499,94.0737039 C107.916864,83.8921202 108.291327,73.5872958 108.120686,63.3440917 C106.783997,-18.1701982 59.040462,-3.07247882 37.6676682,15.6364183 C17.3471611,33.4210096 0.32857572,67.2092848 0,93.2298678 C3.23707932,93.0721154 16.0258413,93.0171275 16.0258413,93.0171275 C16.0258413,93.0171275 26.6603448,44.5010518 60.0585937,44.5010518 C93.4521028,44.5010518 41.9562801,233.826923 41.9562801,233.826923 L76.3882212,233.852615 C76.3882212,233.852615 94.184319,183.167251 103.033954,126.566556 L131.359525,126.403846 C129.709995,141.050538 129.185377,157.225119 129.427119,172.246273 C130.768547,253.760564 178.325523,236.267709 199.698317,217.563552 C221.071111,198.854655 237.019832,159.35021 236.822866,140.382061 C236.849008,140.360427 220.588341,140.513672 220.393179,140.509615 C220.449069,142.007362 209.978395,189.366887 176.584886,189.366887 Z" id="H-White"></path>
            </g>
        </g>
    </g>
</svg>
